<svg width="620" height="348" xmlns="http://www.w3.org/2000/svg">
 <!-- Created with Method Draw - http://github.com/duopixel/Method-Draw/ -->

 <g>
  <title>background</title>
  <rect fill="#e3e3e3" id="canvas_background" height="350" width="622" y="-1" x="-1"/>
  <g display="none" overflow="visible" y="0" x="0" height="100%" width="100%" id="canvasGrid">
   <rect fill="url(#gridpattern)" stroke-width="0" y="0" x="0" height="100%" width="100%"/>
  </g>
 </g>
 <g>
  <title>Layer 1</title>
  <g stroke="null" id="svg_5">
   <path stroke="null" fill="#bdbdbd" id="svg_4" d="m318.063102,193.920206l-1.677491,0c-1.07173,0 -1.5377,-0.46597 -1.5377,-1.584297l0,-36.671818c0,-1.025133 0.46597,-1.5377 1.5377,-1.5377l1.677491,0c1.025133,0 1.584297,0.419373 1.584297,1.5377l0,36.718415c0,1.164924 -0.512567,1.5377 -1.584297,1.5377m9.319395,-39.700621c0,-5.125667 -2.050267,-7.175934 -7.175934,-7.175934l-5.964413,0c-4.846085,0 -7.175934,2.00367 -7.175934,7.175934l0,39.467636c0,4.939279 2.562834,7.222531 7.175934,7.222531l5.964413,0c4.752891,0 7.175934,-2.329849 7.175934,-7.175934l0,-39.514233zm35.273909,15.796374l-3.308385,0l0,-15.889568l3.308385,0c1.07173,0 1.5377,0.46597 1.5377,1.5377l0,12.814168c-0.046597,1.025133 -0.559164,1.5377 -1.5377,1.5377m5.07907,6.290591c2.982206,-0.698955 4.147131,-2.656027 4.147131,-6.290591l0,-15.842971c0,-5.451846 -2.190058,-7.129337 -7.175934,-7.129337l-13.140346,0l0,53.866101l7.735098,0l0,-23.950844l0.792149,0l4.892682,23.950844l7.921485,0l-5.172264,-24.603202zm36.578624,7.688501l2.329849,-25.348754l0.186388,0l2.283252,25.348754l-4.799488,0zm7.874889,-36.858206l-10.297931,0l-6.337188,53.772907l7.222531,0l0.978536,-9.971752l6.1508,0l0.792149,9.971752l7.362322,0l-5.871219,-53.772907zm-202.790028,-0.046597l-6.290591,0l-7.129337,18.545595l-7.175934,-18.545595l-6.290591,0l0,53.819504l7.735098,0l0,-31.546151l5.032473,13.466525l1.444506,0l4.985876,-13.419928l0,31.499554l7.735098,0l0,-53.819504l-0.046597,0zm18.592192,46.829958l-8.900022,0l0,-17.007895l6.896352,0l0,-6.942949l-6.896352,0l0,-15.842971l8.900022,0l0,-7.036143l-16.681716,0l0,53.819504l16.681716,0l0,-6.989546zm22.739323,-46.829958l-7.362322,0l0,23.950844l-6.383785,-23.950844l-7.036143,0l0,53.819504l7.315725,0l0,-28.890123l7.455516,28.890123l5.964413,0l0,-53.819504l0.046597,0zm25.768126,35.273909c0,-2.562834 -0.698955,-3.774355 -2.562834,-5.871219l-8.713634,-9.878558c-0.838746,-0.931939 -1.304715,-1.957073 -1.304715,-3.261788l0,-7.688501c0,-0.978536 0.419373,-1.5377 1.5377,-1.5377l1.817282,0c0.978536,0 1.444506,0.559164 1.444506,1.584297l0,6.803158l7.735098,0l0,-8.340858c0,-5.125667 -2.236655,-7.129337 -7.129337,-7.129337l-5.964413,0c-4.286922,0 -7.175934,2.00367 -7.175934,6.896352l0,12.487989c0,2.656027 0.931939,3.727758 2.376446,5.358652l8.900022,10.15814c0.745552,0.838746 1.258118,1.584297 1.258118,3.215191l0,7.175934c0,1.118327 -0.46597,1.5377 -1.5377,1.5377l-1.724088,0c-1.025133,0 -1.5377,-0.46597 -1.5377,-1.5377l0,-6.663367l-7.735098,0l0,8.107873c0,4.892682 2.329849,7.175934 7.175934,7.175934l5.964413,0c4.846085,0 7.175934,-2.562834 7.175934,-7.175934l0,-11.416258zm-24.556605,-35.273909l0,12.115213l2.00367,0l2.283252,-12.115213l-4.286922,0zm53.073953,0l-7.828292,0l0,45.338855c0,1.025133 -0.46597,1.491103 -1.5377,1.491103l-1.724088,0c-0.978536,0 -1.5377,-0.46597 -1.5377,-1.5377l0,-6.663367l-7.781695,0l0,7.968082c0,4.985876 2.376446,7.222531 7.175934,7.222531l6.057607,0c4.846085,0 7.175934,-2.236655 7.175934,-7.222531l0,-46.596973zm44.6399,0l-7.735098,0l0,45.292258c0,1.07173 -0.419373,1.5377 -1.5377,1.5377l-1.677491,0c-1.07173,0 -1.5377,-0.46597 -1.5377,-1.491103l0,-45.338855l-7.735098,0l0,46.64357c0,4.985876 2.283252,7.222531 7.175934,7.222531l5.964413,0c4.939279,0 7.129337,-2.050267 7.129337,-7.175934l0,-46.690167l-0.046597,0zm45.012676,0l-7.362322,0l0,23.950844l-6.337188,-23.950844l-7.036143,0l0,53.819504l7.315725,0l0,-28.890123l7.455516,28.890123l5.964413,0l0,-53.819504zm40.772352,53.819504l-16.495329,0l0,-53.819504l7.781695,0l0,46.829958l8.760231,0l0,6.989546l-0.046597,0z" class="color-theme-logo"/>
  </g>
 </g>
</svg>