<svg width="500" height="500" xmlns="http://www.w3.org/2000/svg">
 <!-- Created with Method Draw - http://github.com/duopixel/Method-Draw/ -->

 <g>
  <title>background</title>
  <rect fill="#e3e3e3" id="canvas_background" height="502" width="502" y="-1" x="-1"/>
  <g display="none" overflow="visible" y="0" x="0" height="100%" width="100%" id="canvasGrid">
   <rect fill="url(#gridpattern)" stroke-width="0" y="0" x="0" height="100%" width="100%"/>
  </g>
 </g>
 <g>
  <title>Layer 1</title>
  <g stroke="null" id="svg_5">
   <path stroke="null" fill="#bdbdbd" id="svg_4" d="m260.102064,272.203766l-1.869792,0c-1.194589,0 -1.713976,-0.519387 -1.713976,-1.765914l0,-40.875722c0,-1.14265 0.519387,-1.713976 1.713976,-1.713976l1.869792,0c1.14265,0 1.765914,0.467448 1.765914,1.713976l0,40.927661c0,1.298466 -0.571325,1.713976 -1.765914,1.713976m10.387731,-44.251735c0,-5.713252 -2.285301,-7.998553 -7.998553,-7.998553l-6.648148,0c-5.40162,0 -7.998553,2.233362 -7.998553,7.998553l0,43.992042c0,5.505498 2.856626,8.050492 7.998553,8.050492l6.648148,0c5.297743,0 7.998553,-2.596933 7.998553,-7.998553l0,-44.04398zm39.317562,17.607204l-3.687645,0l0,-17.711082l3.687645,0c1.194589,0 1.713976,0.519387 1.713976,1.713976l0,14.28313c-0.051939,1.14265 -0.623264,1.713976 -1.713976,1.713976m5.661313,7.011719c3.324074,-0.77908 4.62254,-2.960503 4.62254,-7.011719l0,-17.659143c0,-6.076823 -2.441117,-7.946614 -7.998553,-7.946614l-14.646701,0l0,60.041086l8.621817,0l0,-26.696469l0.882957,0l5.453559,26.696469l8.829571,0l-5.765191,-27.42361zm40.771845,8.569878l2.596933,-28.254629l0.207755,0l2.544994,28.254629l-5.349682,0zm8.777633,-41.083477l-11.478443,0l-7.063657,59.937209l8.050492,0l1.090712,-11.114872l6.855903,0l0.882957,11.114872l8.206308,0l-6.544271,-59.937209zm-226.03703,-0.051939l-7.011719,0l-7.946614,20.671585l-7.998553,-20.671585l-7.011719,0l0,59.989148l8.621817,0l0,-35.16247l5.609375,15.010272l1.610098,0l5.557436,-14.958333l0,35.110531l8.621817,0l0,-59.989148l-0.051939,0zm20.723524,52.198349l-9.920283,0l0,-18.957609l7.686921,0l0,-7.73886l-7.686921,0l0,-17.659143l9.920283,0l0,-7.842737l-18.594039,0l0,59.989148l18.594039,0l0,-7.790798zm25.346064,-52.198349l-8.206308,0l0,26.696469l-7.115596,-26.696469l-7.842737,0l0,59.989148l8.154369,0l0,-32.201967l8.310185,32.201967l6.648148,0l0,-59.989148l0.051939,0zm28.722077,39.317562c0,-2.856626 -0.77908,-4.207031 -2.856626,-6.544271l-9.712529,-11.010995c-0.934896,-1.038773 -1.454282,-2.181424 -1.454282,-3.635706l0,-8.569878c0,-1.090712 0.467448,-1.713976 1.713976,-1.713976l2.025608,0c1.090712,0 1.610098,0.623264 1.610098,1.765914l0,7.583044l8.621817,0l0,-9.297019c0,-5.713252 -2.493055,-7.946614 -7.946614,-7.946614l-6.648148,0c-4.778356,0 -7.998553,2.233362 -7.998553,7.686921l0,13.91956c0,2.960503 1.038773,4.155092 2.648871,5.972945l9.920283,11.322627c0.831018,0.934896 1.402344,1.765914 1.402344,3.583767l0,7.998553c0,1.246528 -0.519387,1.713976 -1.713976,1.713976l-1.92173,0c-1.14265,0 -1.713976,-0.519387 -1.713976,-1.713976l0,-7.427228l-8.621817,0l0,9.037326c0,5.453559 2.596933,7.998553 7.998553,7.998553l6.648148,0c5.40162,0 7.998553,-2.856626 7.998553,-7.998553l0,-12.724971zm-27.371672,-39.317562l0,13.504051l2.233362,0l2.544994,-13.504051l-4.778356,0zm59.158129,0l-8.725694,0l0,50.536312c0,1.14265 -0.519387,1.662037 -1.713976,1.662037l-1.92173,0c-1.090712,0 -1.713976,-0.519387 -1.713976,-1.713976l0,-7.427228l-8.673756,0l0,8.88151c0,5.557436 2.648871,8.050492 7.998553,8.050492l6.752025,0c5.40162,0 7.998553,-2.493055 7.998553,-8.050492l0,-51.938656zm49.757232,0l-8.621817,0l0,50.484374c0,1.194589 -0.467448,1.713976 -1.713976,1.713976l-1.869792,0c-1.194589,0 -1.713976,-0.519387 -1.713976,-1.662037l0,-50.536312l-8.621817,0l0,51.990595c0,5.557436 2.544994,8.050492 7.998553,8.050492l6.648148,0c5.505498,0 7.946614,-2.285301 7.946614,-7.998553l0,-52.042533l-0.051939,0zm50.172742,0l-8.206308,0l0,26.696469l-7.063657,-26.696469l-7.842737,0l0,59.989148l8.154369,0l0,-32.201967l8.310185,32.201967l6.648148,0l0,-59.989148zm45.446324,59.989148l-18.386284,0l0,-59.989148l8.673756,0l0,52.198349l9.764467,0l0,7.790798l-0.051939,0z" class="color-theme-logo"/>
  </g>
 </g>
</svg>