<svg xmlns="http://www.w3.org/2000/svg" viewBox="0 0 108.71 108.86"><defs><style>.cls-1{fill:#64b054}.cls-3{fill:#6a7274}.cls-4{fill:#a0abb0}</style></defs><g id="Layer_2" data-name="Layer 2"><g id="Layer_1-2" data-name="Layer 1"><path class="cls-1" d="M54.2 50.93h19.41a19.62 19.62 0 1 0-19.41 23z"/><path d="M58.1 71.68c-.4 0-3.34-1.4-6.6-2.27a35.43 35.43 0 0 1-6.2-2.2c-2.07-.87-2.13-1.8-3-1.8a4.72 4.72 0 0 1-3.6-1.86 2.11 2.11 0 0 1 .27-2.8c.33-.34.4-.27.13-1.07s-.53-2.27.14-2.87 1.33-.73 1.13-1.46a3.11 3.11 0 0 1 .47-2.47c.46-.46 1-.53.8-1.93s1.06-2.53 2.66-3 2.65.07 3.89.47 3.44 1.53 4.44.46 1.13-3.13.87-4.46a7.8 7.8 0 0 1 .8-4.73c.73-1.27 2.06-2.6 3.06-2.8s1.4-.07 1.34.6-1.27 2.8-1.27 3.86.4 2.8.33 3.74a4.87 4.87 0 0 0 .67 3c.6.87.61 2.8.27 4.94s-2 7.87-2 7.87z" fill="#fff"/><path class="cls-3" d="M52.9 57.3h-2.72v-4.17H53V47.4h5.12v5.73h4.78v4.17h-4.76v8.49c0 3.47 2.72 4 4.16 4a5 5 0 0 0 1-.08v4.58a9.94 9.94 0 0 1-1.61.12c-2.92 0-8.74-.86-8.74-7.92zM76.74 61h.66v-.2c0-3-1.2-4.12-3.88-4.12-1 0-2.8.25-2.8 1.4v1.11h-4.87V57c0-3.92 5.53-4.33 7.71-4.33 7 0 9.08 3.67 9.08 8.37v7.84a.82.82 0 0 0 .91.9h1.65v4.42h-4.71c-1.93 0-2.68-1.08-2.68-2.31v-.91h-.08a6.85 6.85 0 0 1-6.35 3.71c-3.75 0-7.18-2.35-7.18-6.56.04-6.63 9.12-7.13 12.54-7.13zm-4 9.61c2.8 0 4.78-3 4.78-5.53v-.49h-.9c-2.73 0-7.06.37-7.06 3.3-.04 1.37.99 2.69 3.14 2.69zM95 52.64c4.87 0 6.48 3 6.48 3h.08v-.54c0-1 .66-1.94 2.31-1.94h4.87v4.46h-1.64a.8.8 0 0 0-.91.82v14.45c0 7.22-5.61 9.94-11.1 9.94A16.64 16.64 0 0 1 87.63 81l1.61-4.12a13.6 13.6 0 0 0 5.81 1.4c3.18 0 5.94-1.36 5.94-5.15v-1-1.12h.01c-1.24 1.78-3 2.72-5.86 2.72-6 0-9.44-4.86-9.44-10.64s3.21-10.45 9.3-10.45zm6.15 10.51c0-4.78-2.4-6.06-5.24-6.06C92.7 57.09 91 59.4 91 63s1.86 6.39 5.24 6.39c2.48-.05 4.88-1.49 4.88-6.24z"/><path class="cls-4" d="M54.28 28.22a26.06 26.06 0 0 0-.08 52.12V73.9a19.62 19.62 0 1 1 19.41-23h6.51a26.11 26.11 0 0 0-25.84-22.68z"/><path class="cls-4" d="M54.2 102.21a47.93 47.93 0 1 1 47.89-51.28h6.37a54.28 54.28 0 1 0-54.26 57.63z"/><path class="cls-4" d="M54.28 14.1a40.18 40.18 0 0 0-.08 80.36V88.3a34 34 0 1 1 33.93-37.37h6.19A40.23 40.23 0 0 0 54.28 14.1z"/><path class="cls-1" d="M59.93 86.34c.72 0 2.3.27 2.3 1.2v.73h-.8v-.47c0-.53-.91-.73-1.47-.73a2.19 2.19 0 0 0-2.23 2.32A2.29 2.29 0 0 0 60 91.83c.43 0 1.51-.15 1.51-.71v-.47h.79v.74c0 .88-1.51 1.18-2.35 1.18a3.06 3.06 0 0 1-3.11-3.15 3 3 0 0 1 3.09-3.08zM63.23 91.81H64V87.1h-.75v-.66h4.35v1.4h-.75v-.7h-2v1.94H67v.7h-2.16v2H67v-.72h.74v1.42h-4.51zM68.63 91.81h.75V87.1h-.75v-.66h2.61a3.46 3.46 0 0 1 1.11.13 1.52 1.52 0 0 1 1.05 1.56 1.63 1.63 0 0 1-1.25 1.69.74.74 0 0 1 .26.28l.85 1.49a.41.41 0 0 0 .42.2h.18v.66h-.51c-.51 0-.63-.09-.84-.45l-.93-1.65c-.15-.26-.26-.33-.63-.33h-.72v1.77H71v.66h-2.37zm2.82-2.47a1 1 0 0 0 1.09-1.14.93.93 0 0 0-.57-1 2.22 2.22 0 0 0-.74-.11h-1v2.2zM75.74 91.81h.76v-4.67h-1.42v.94h-.74v-1.64h5.17v1.64h-.74v-.94h-1.42v4.67h.76v.66h-2.37zM80.21 91.81H81V87.1h-.75v-.66h2.37v.66h-.76v4.71h.76v.66h-2.41zM83.47 91.81h.75V87.1h-.75v-.66h4.18v1.43h-.74v-.69h-1.83v2h2.08v.7h-2.08v1.93h.82v.66h-2.43zM88.4 91.81h.75V87.1h-.75v-.66h2.36v.66H90v4.71h.76v.66H88.4zM91.66 91.81h.75V87.1h-.75v-.66H96v1.4h-.74v-.7h-2v1.94h2.14v.7h-2.14v2h2.16v-.72h.75v1.42h-4.51zM97.05 91.81h.76V87.1h-.76v-.66h2.57a4.31 4.31 0 0 1 1.29.15 3.1 3.1 0 0 1 0 5.72 4 4 0 0 1-1.28.16h-2.58zm2.53 0a2.79 2.79 0 0 0 1-.15 2.1 2.1 0 0 0 1.31-2.16 2.13 2.13 0 0 0-1.31-2.18 2.86 2.86 0 0 0-1-.14h-.92v4.63zM56.52 100h.58l1.9-5.41h1l1.91 5.41h.58v.66H60.4V100h.6l-.47-1.34h-2.1L58 100h.64v.66h-2.12zm3.84-2l-.74-2.09a2.44 2.44 0 0 1-.1-.46 2.44 2.44 0 0 1-.1.46L58.68 98zM66 94.48c1.06 0 2.32.43 2.32 1.19v.74h-.79V96c0-.5-.79-.75-1.5-.75a2.18 2.18 0 0 0-2.3 2.34 2.26 2.26 0 0 0 2.35 2.41c.53 0 1.61-.16 1.61-.75v-.79h-1.18v-.67h2v1.69c0 .93-1.56 1.27-2.46 1.27a3 3 0 0 1-3.15-3.14 3 3 0 0 1 3.1-3.13zM69 100h.58l1.92-5.36h1l1.93 5.36H75v.66h-2.1V100h.64l-.47-1.34H71l-.52 1.34h.65v.66H69zm3.83-2l-.73-2.09a2.1 2.1 0 0 1-.11-.46 4 4 0 0 1-.1.46L71.14 98zM75.55 100h.75v-4.76h-.75v-.65h2.37v.65h-.76V100h.76v.66h-2.37zM78.81 100h.75v-4.76h-.75v-.65h1.6l3 4.32a4.53 4.53 0 0 1 .21.43 4.77 4.77 0 0 1 0-.48v-3.62h-.77v-.65h2.38v.65h-.76v5.37h-.83l-3-4.32a2.41 2.41 0 0 1-.2-.43 2.87 2.87 0 0 1 0 .48V100h.77v.66h-2.4zM86.75 98.8v.45c0 .44.57.71 1.2.71s1.2-.33 1.2-.93-.71-.93-1.45-1.22-1.61-.64-1.61-1.7.91-1.63 1.91-1.63 1.83.34 1.83 1v.71h-.79v-.42c0-.35-.54-.54-1-.54s-1.06.28-1.06.83.61.86 1.28 1.11c.89.34 1.77.68 1.77 1.8s-.94 1.75-2.06 1.75c-.93 0-2-.42-2-1.28v-.64zM92.09 100h.76v-4.71h-1.41v.93h-.75v-1.63h5.18v1.63h-.74v-.93h-1.42V100h.76v.66h-2.38zM56.88 108.09h.75v-4.7h-.75v-.66h4.18v1.42h-.75v-.69h-1.82v2h2.08v.7h-2.08v1.93h.82v.67h-2.43zM61.81 108.09h.75v-4.7h-.75v-.66h2.61a3.46 3.46 0 0 1 1.11.13 1.52 1.52 0 0 1 1 1.56 1.64 1.64 0 0 1-1.25 1.69.65.65 0 0 1 .26.28l.85 1.48c.1.17.21.2.42.2H67v.67h-.51c-.51 0-.63-.1-.84-.46l-.93-1.64a.57.57 0 0 0-.63-.34h-.72v1.77h.74v.67h-2.3zm2.81-2.47a1 1 0 0 0 1.1-1.13.92.92 0 0 0-.57-.95 2 2 0 0 0-.74-.11h-1v2.19zM67.44 108.09H68l1.92-5.36h1l1.92 5.36h.58v.67h-2.1v-.67H72l-.47-1.34h-2.18l-.47 1.34h.65v.67h-2.09zm3.83-2l-.73-2.1a1.68 1.68 0 0 1-.1-.46 2.29 2.29 0 0 1-.1.46l-.74 2.1zM74.25 103.39h-.76v-.66h2.38v.66h-.76v3.11a1.8 1.8 0 0 0 .23 1 1.65 1.65 0 0 0 2.59 0 1.89 1.89 0 0 0 .23-1v-3.1h-.76v-.66h2.37v.66H79v3.12a2.63 2.63 0 0 1-.4 1.48 2.35 2.35 0 0 1-2 .88 2.42 2.42 0 0 1-2-.88 2.47 2.47 0 0 1-.4-1.47zM80.48 108.09h.76v-4.7h-.76v-.66h2.57a4.33 4.33 0 0 1 1.29.14 2.8 2.8 0 0 1 1.9 2.87 2.77 2.77 0 0 1-1.9 2.85 4 4 0 0 1-1.28.17h-2.58zm2.53 0a2.75 2.75 0 0 0 1-.16 2.1 2.1 0 0 0 1.31-2.16 2.14 2.14 0 0 0-1.3-2.18 3.16 3.16 0 0 0-1-.13h-.92v4.63z"/></g></g></svg>