<svg width="93" height="22" viewBox="0 0 93 22" xmlns="http://www.w3.org/2000/svg"><title>VZ_logo</title><g fill="none" fill-rule="evenodd"><path fill="#D52B1E" d="M90.552.2l-5.046 10.702-1.907-4.062h-2.062l3.13 6.641h1.667L92.598.2z"/><path d="M36.922 5.73h4.102V2.138h-4.102V5.73zM4.651 20.07h4.285l4.651-13.23H9.485l-2.612 8.502h-.054L4.207 6.84H0l4.651 13.23zm15.05-10.723c1.437 0 2.43 1.06 2.588 2.61h-5.462c.314-1.577 1.176-2.61 2.874-2.61zm.21 8.191c-1.803 0-2.9-1.162-3.11-2.946h9.643c.025-2.843-.733-5.116-2.327-6.537-1.122-1.034-2.612-1.602-4.494-1.602-4.023 0-6.82 3.023-6.82 6.977 0 3.979 2.666 7.028 7.081 7.028 1.673 0 3.005-.44 4.104-1.188 1.175-.802 2.011-1.964 2.246-3.127h-3.92c-.391.879-1.2 1.395-2.403 1.395zm7.499 2.533h4.077v-6.073c0-2.765 1.671-3.978 4.233-3.643h.079V6.867c-.21-.078-.445-.104-.837-.104-1.594 0-2.666.723-3.58 2.274h-.079V6.84H27.41v13.23zm9.512 0h4.102V6.84h-4.102v13.23zm5.227 0h11.444v-3.179h-6.48v-.077l6.194-6.874v-3.1H42.149v3.179h6.27v.077l-6.27 6.925v3.049zm18.682-2.559c-1.934 0-2.952-1.601-2.952-4.03 0-2.456 1.018-4.032 2.952-4.032s3.006 1.576 3.006 4.031c0 2.43-1.072 4.031-3.006 4.031zm.027-11.033c-4.26 0-7.108 3.024-7.108 7.002 0 3.954 2.848 7.003 7.108 7.003 4.259 0 7.107-3.05 7.107-7.003 0-3.978-2.848-7.002-7.107-7.002zm7.995 13.592h4.077v-7.365c0-1.68.992-2.868 2.456-2.868 1.411 0 2.143.982 2.143 2.377v7.856h4.076v-8.63c0-2.92-1.777-4.988-4.651-4.988-1.829 0-3.11.775-4.076 2.196h-.079V6.84h-3.946v13.23z" fill="#000"/></g></svg>