<svg xmlns="http://www.w3.org/2000/svg" viewBox="0 0 265.31 259.19"><title id="uniqueTitleID">Trustworthy Accountability Group</title><desc id="uniqueDescID">Trustworthy Accountability Group</desc><defs><style>.cls-1{fill:#903f98}.cls-3{fill:#667375}.cls-4{fill:#9eacb2}</style></defs><g id="Layer_2" data-name="Layer 2"><g id="Layer_1-2" data-name="Layer 1"><path class="cls-1" d="M129.39 121.59h46.35a46.83 46.83 0 1 0-46.35 54.84z"/><path d="M138.7 171.12c-.95 0-7.95-3.34-15.75-5.41a84.73 84.73 0 0 1-14.8-5.25c-4.93-2.07-5.09-4.29-7.16-4.29s-6.36-1.12-8.59-4.46A5 5 0 0 1 93 145c.79-.8.95-.64.32-2.55s-1.28-5.4.32-6.84 3.18-1.75 2.7-3.5 0-4.77 1.11-5.88 2.39-1.28 1.91-4.62 2.55-6 6.37-7.16 6.31.16 9.28 1.12 8.22 3.66 10.6 1.11 2.71-7.48 2.07-10.66a18.9 18.9 0 0 1 1.91-11.3c1.75-3 4.93-6.2 7.32-6.68s3.34-.16 3.18 1.43-3 6.69-3 9.23.95 6.68.8 8.91a11.53 11.53 0 0 0 1.59 7.16c1.43 2.07 1.46 6.68.65 11.77s-4.74 18.79-4.74 18.79z" fill="#fff"/><path class="cls-3" d="M126.3 136.79h-6.5v-9.94h6.79v-13.69h12.21v13.69h11.43v9.94H138.8v20.29c0 8.27 6.5 9.45 9.95 9.45a11.8 11.8 0 0 0 2.26-.19v10.93a23.34 23.34 0 0 1-3.84.29c-7 0-20.87-2.06-20.87-18.9zM183.21 145.56h1.58v-.4c0-7.18-2.86-9.84-9.26-9.84-2.26 0-6.69.59-6.69 3.34v2.66h-11.62V136c0-9.36 13.19-10.34 18.41-10.34 16.74 0 21.67 8.76 21.67 20v18.71a2 2 0 0 0 2.16 2.16h3.94v10.54h-11.22c-4.63 0-6.4-2.56-6.4-5.51 0-1.28.09-2.17.09-2.17h-.19s-3.84 8.86-15.17 8.86c-9 0-17.13-5.61-17.13-15.65 0-15.76 21.62-17.04 29.83-17.04zm-9.65 22.94c6.7 0 11.43-7.09 11.43-13.19v-1.18h-2.17c-6.5 0-16.84.88-16.84 7.87.02 3.35 2.46 6.5 7.58 6.5zM226.74 125.67c11.62 0 15.46 7.09 15.46 7.09h.2v-1.28c0-2.27 1.57-4.63 5.51-4.63h11.62v10.63h-3.84a1.91 1.91 0 0 0-2.16 2V174c0 17.23-13.4 23.73-26.49 23.73a40 40 0 0 1-17.83-4.33l3.84-9.85a32.45 32.45 0 0 0 13.89 3.35c7.58 0 14.18-3.25 14.18-12.31v-2.36c0-1.19.1-2.66.1-2.66H241c-3 4.23-7.29 6.5-14 6.5-14.38 0-22.56-11.62-22.56-25.41s7.82-24.99 22.3-24.99zm14.67 25.11c0-11.43-5.71-14.48-12.5-14.48-7.59 0-11.72 5.52-11.72 14 0 8.77 4.43 15.27 12.5 15.27 6.01-.02 11.72-3.47 11.72-14.79z"/><path class="cls-4" d="M129.6 67.38a62.22 62.22 0 0 0-.21 124.43v-15.38a46.84 46.84 0 1 1 46.35-54.84h15.54a62.3 62.3 0 0 0-61.68-54.21z"/><path class="cls-4" d="M129.39 244a114.43 114.43 0 1 1 114.35-122.41h15.2C254.79 53.84 198.37 0 129.6 0 58.14 0 0 58.14 0 129.59a129.74 129.74 0 0 0 129.39 129.6z"/><path class="cls-4" d="M129.6 33.66a95.94 95.94 0 0 0-.21 191.87v-14.72a81.22 81.22 0 1 1 81-89.22h14.81a96.07 96.07 0 0 0-95.6-87.93z"/><path class="cls-1" d="M135.8 238.62h1.79v-11.23h-1.79v-1.57h6.2a8.11 8.11 0 0 1 2.65.31 3.64 3.64 0 0 1 2.51 3.73 3.89 3.89 0 0 1-3 4 1.73 1.73 0 0 1 .61.68l2 3.54c.22.39.49.47 1 .47h.43v1.59h-1.23c-1.22 0-1.5-.22-2-1.08l-2.23-3.93a1.38 1.38 0 0 0-1.5-.8h-1.72v4.22h1.78v1.59h-5.5zm6.73-5.89a2.48 2.48 0 0 0 2.61-2.71 2.2 2.2 0 0 0-1.35-2.26 4.85 4.85 0 0 0-1.77-.27h-2.39v5.24zM150 238.62h1.79v-11.23H150v-1.57h10.41v3.34h-1.77v-1.67h-4.81v4.63h5.1v1.67h-5.1v4.75H159v-1.73h1.77v3.4H150zM170.35 225.58c2.53 0 5.52 1 5.52 2.83v1.77H174v-1.06c0-1.2-1.9-1.79-3.59-1.79a5.21 5.21 0 0 0-5.48 5.58c0 3.33 2.16 5.77 5.54 5.77 1.29 0 3.85-.38 3.85-1.79V235h-2.81v-1.6h4.69v4c0 2.22-3.71 3-5.87 3a7.26 7.26 0 0 1-7.52-7.48 7.17 7.17 0 0 1 7.54-7.34zM178.5 238.62h1.79v-11.23h-1.79v-1.57h5.65v1.57h-1.82v11.23h1.82v1.59h-5.65zM188.16 235.89V237c0 1.06 1.37 1.69 2.88 1.69s2.85-.77 2.85-2.2c0-1.67-1.69-2.22-3.47-2.91s-3.83-1.53-3.83-4.08c0-2.71 2.18-3.87 4.61-3.87 2.16 0 4.36.81 4.36 2.38v1.69h-1.9v-1c0-.83-1.28-1.28-2.46-1.28-1.41 0-2.53.65-2.53 2 0 1.53 1.45 2 3.06 2.65 2.12.79 4.22 1.61 4.22 4.28s-2.24 4.18-4.91 4.18c-2.25 0-4.75-1-4.75-3.06v-1.51zM200.92 238.62h1.81v-11.13h-3.38v2.24h-1.77v-3.91h12.35v3.91h-1.77v-2.24h-3.39v11.13h1.82v1.59h-5.67zM211.6 238.62h1.79v-11.23h-1.79v-1.57H222v3.34h-1.78v-1.67h-4.81v4.63h5.1v1.67h-5.1v4.75h5.16v-1.73h1.77v3.4H211.6zM224.48 238.62h1.79v-11.23h-1.79v-1.57h6.24a8.11 8.11 0 0 1 2.65.31 3.64 3.64 0 0 1 2.51 3.73 3.9 3.9 0 0 1-3 4 1.73 1.73 0 0 1 .61.68l2 3.54c.22.39.49.47 1 .47h.51v1.59h-1.23c-1.22 0-1.51-.22-2-1.08l-2.22-3.93a1.38 1.38 0 0 0-1.51-.8h-1.71v4.22h1.78v1.59h-5.61zm6.73-5.89a2.48 2.48 0 0 0 2.61-2.71 2.2 2.2 0 0 0-1.35-2.26 4.85 4.85 0 0 0-1.77-.27h-2.39v5.24zM238.69 238.62h1.79v-11.23h-1.79v-1.57h10.41v3.34h-1.77v-1.67h-4.81v4.63h5.1v1.67h-5.1v4.75h5.16v-1.73h1.77v3.4h-10.76zM251.57 238.62h1.79v-11.23h-1.79v-1.57h6.13a10 10 0 0 1 3.06.35c2.75.85 4.55 3.34 4.55 6.85s-1.74 5.91-4.55 6.8a9.42 9.42 0 0 1-3 .39h-6.15zm6-.08a6.51 6.51 0 0 0 2.45-.37c1.93-.67 3.14-2.52 3.14-5.15s-1.21-4.51-3.12-5.2a6.82 6.82 0 0 0-2.47-.33h-2.2v11z"/></g></g></svg>